<svg width="138.081" height="31.819" viewBox="0 0 36.534 8.419" xml:space="preserve" xmlns="http://www.w3.org/2000/svg">
    <g style="display:inline">
        <path style="font-weight:200;font-size:3.52777px;line-height:27;font-family:'IBM Plex Mono';-inkscape-font-specification:'IBM Plex Mono Ultra-Light';letter-spacing:.264583px;word-spacing:0;fill:#e1a9c2;fill-opacity:1;fill-rule:evenodd;stroke:#5b1537;stroke-width:.233823;stroke-linecap:square;stroke-dasharray:none;stroke-opacity:1" d="m88.77 124.998-.015 3.182-1.094-1.489-.216-.301-.286-.047.046.33 1.866 2.53.02-3.868 17.549.047h.24l.234-.176-.246-.173-.228-.002zm13.51 1.033v.11h.688v2.391h-.688v.11h1.495v-.11h-.684v-2.5zm-3.927.106c-.285 0-.502.102-.653.307-.148.205-.222.527-.222.967 0 .442.074.765.222.97.15.202.368.303.653.303a.68.68 0 0 0 .445-.141.847.847 0 0 0 .254-.367l-.113-.046a.713.713 0 0 1-.215.321.572.572 0 0 1-.371.117c-.242 0-.426-.086-.55-.258-.123-.174-.184-.429-.184-.765v-.268c0-.337.061-.59.184-.762.124-.174.308-.262.55-.262.15 0 .274.04.37.12a.688.688 0 0 1 .216.318l.113-.046a.823.823 0 0 0-.254-.363.67.67 0 0 0-.445-.145zm-7.959.042v2.463h.12v-2.29h.015l1.136 2.29h.183v-2.463h-.12v2.29h-.014l-1.136-2.29zm5.172.6a.367.367 0 0 0-.243.074.43.43 0 0 0-.127.184h-.01v-.216h-.117v1.82h.116v-1.35c0-.137.034-.238.102-.304a.344.344 0 0 1 .248-.102c.098 0 .171.032.218.095.05.061.074.162.074.304v1.358h.117v-1.352c0-.136.034-.237.102-.303a.336.336 0 0 1 .247-.102c.099 0 .172.032.219.095.049.061.074.162.074.304v1.358h.116v-1.376c0-.158-.03-.278-.092-.36-.059-.085-.154-.127-.285-.127a.38.38 0 0 0-.261.085.472.472 0 0 0-.135.204h-.007a.36.36 0 0 0-.116-.211.35.35 0 0 0-.24-.078zm4.996 0a.75.75 0 0 0-.417.106.606.606 0 0 0-.233.271l.092.06a.492.492 0 0 1 .219-.246.674.674 0 0 1 .335-.082c.158 0 .281.042.37.124.092.082.138.21.138.38v.262h-.498c-.134 0-.247.013-.338.039a.558.558 0 0 0-.222.106.366.366 0 0 0-.12.162.595.595 0 0 0-.036.208c0 .165.053.292.159.381.106.09.257.134.452.134.164 0 .294-.03.388-.092a.574.574 0 0 0 .204-.229h.015v.13a.168.168 0 0 0 .038.11c.024.026.063.039.117.039h.254v-.11h-.29v-1.153c0-.19-.055-.338-.165-.441-.11-.106-.265-.159-.462-.159zm4.92 0c-.242 0-.43.081-.564.244-.134.162-.2.398-.2.709 0 .31.066.546.2.709.134.162.322.243.565.243a.77.77 0 0 0 .229-.032.655.655 0 0 0 .423-.374l-.095-.056a.617.617 0 0 1-.212.257.594.594 0 0 1-.345.096c-.205 0-.361-.066-.47-.198-.108-.134-.162-.315-.162-.543v-.205c0-.228.054-.408.163-.54.108-.134.264-.2.469-.2.129 0 .238.029.328.088.089.056.154.138.194.246l.106-.042a.596.596 0 0 0-.226-.289.678.678 0 0 0-.402-.113zm-12.646.042v1.182c0 .221.053.39.159.508.105.115.258.173.458.173.157 0 .28-.032.367-.095a.505.505 0 0 0 .183-.215h.011v.268h.123v-1.82h-.123v1.301a.41.41 0 0 1-.046.198.398.398 0 0 1-.116.14.514.514 0 0 1-.173.085.692.692 0 0 1-.198.029c-.17 0-.298-.047-.388-.141-.09-.094-.134-.245-.134-.452v-1.16zm7.736.932h.494v.367a.385.385 0 0 1-.05.197.439.439 0 0 1-.126.145.644.644 0 0 1-.191.088.875.875 0 0 1-.226.028.613.613 0 0 1-.353-.091.3.3 0 0 1-.134-.265v-.106a.31.31 0 0 1 .134-.261c.092-.068.243-.102.452-.102z" transform="matrix(1.80051 0 0 1.80051 -156.684 -224.85)"/>
    </g>
</svg>
