<svg width="64.444" height="47.413" viewBox="0 0 17.051 12.545" xml:space="preserve" xmlns="http://www.w3.org/2000/svg">
    <path style="fill:#e1a9c2;fill-rule:evenodd;stroke:#5b1537;stroke-width:.328;stroke-linecap:round;stroke-linejoin:round" d="m108.31 136.92 3.743.361 5.008-.025 4.178 2.407-.865 3.405-2.016.87.144 3.901-3.525 1.2-4.418.097-4.938-1.921-1.105-4.526.913-3.314z" transform="translate(-104.352 -136.755)"/>
    <path style="font-weight:200;font-size:3.52777px;line-height:27;font-family:'IBM Plex Mono';-inkscape-font-specification:'IBM Plex Mono Ultra-Light';letter-spacing:.264583px;word-spacing:0;fill:#e1a9c2;fill-opacity:1;fill-rule:evenodd;stroke:#5b1537;stroke-width:.233823;stroke-linecap:square;stroke-dasharray:none;stroke-opacity:1" d="m88.77 124.998-.015 3.182-1.094-1.489-.216-.301-.286-.047.046.33 1.866 2.53.02-3.868 4.03.047h.24l.234-.176-.246-.173-.228-.002zm1.624 1.181v2.463h.12v-2.29h.015l1.136 2.29h.183v-2.463h-.12v2.29h-.014l-1.136-2.29z" transform="matrix(1.80051 0 0 1.80051 -154.686 -222.228)"/>
</svg>
